<svg width="353" height="101" viewBox="0 0 353 101" fill="none" xmlns="http://www.w3.org/2000/svg">
<path d="M1.375 70.2344C1.375 69.1719 1.4375 68.4062 1.5625 67.9375C1.71875 67.4688 1.82812 67.125 1.89062 66.9062C1.89062 65.5938 1.89062 64.5156 1.89062 63.6719C1.92188 62.8281 1.95312 62.1406 1.98438 61.6094C2.01562 61.0469 2.04688 60.5781 2.07812 60.2031C2.14062 59.8281 2.1875 59.4531 2.21875 59.0781C2.25 58.7031 2.26562 58.2969 2.26562 57.8594C2.29688 57.3906 2.3125 56.7812 2.3125 56.0312C2.3125 53.2812 2.23438 50.5156 2.07812 47.7344C1.92188 44.9219 1.73438 42.0938 1.51562 39.25C1.32812 36.375 1.15625 33.4844 1 30.5781C0.84375 27.6719 0.765625 24.7344 0.765625 21.7656C0.765625 19.2969 0.78125 17.2344 0.8125 15.5781C0.875 13.8906 1.03125 12.5469 1.28125 11.5469C1.53125 10.5469 1.90625 9.82812 2.40625 9.39062C2.9375 8.95313 3.67188 8.73438 4.60938 8.73438C5.23438 8.73438 5.84375 8.875 6.4375 9.15625C7.03125 9.4375 7.54688 9.82812 7.98438 10.3281C8.45312 10.7969 8.8125 11.3594 9.0625 12.0156C9.34375 12.6406 9.48438 13.2969 9.48438 13.9844C9.48438 15.2344 9.45312 16.5 9.39062 17.7812C9.32812 19.0625 9.29688 20.2969 9.29688 21.4844C9.29688 24.8281 9.34375 28.1719 9.4375 31.5156C9.5625 34.8594 9.6875 38.2344 9.8125 41.6406C9.96875 45.0469 10.1094 48.5156 10.2344 52.0469C10.3594 55.5469 10.4531 59.125 10.5156 62.7812C10.5156 63.3125 10.5469 63.625 10.6094 63.7188C10.7031 63.7812 11.0625 63.8125 11.6875 63.8125C12.5 63.8438 13.625 63.8906 15.0625 63.9531C16.5312 64.0156 18.25 64.0781 20.2188 64.1406C22.1875 64.2031 24.3906 64.2656 26.8281 64.3281C29.2969 64.3594 31.9531 64.375 34.7969 64.375C35.9844 64.375 37.1719 64.2656 38.3594 64.0469C39.5469 63.7969 40.7969 63.6719 42.1094 63.6719C42.7344 63.6719 43.3125 63.8125 43.8438 64.0938C44.4062 64.375 44.8906 64.75 45.2969 65.2188C45.7031 65.6562 46.0156 66.1719 46.2344 66.7656C46.4844 67.3281 46.6094 67.9219 46.6094 68.5469C46.6094 69.1094 46.4531 69.6875 46.1406 70.2812C45.8281 70.875 45.4219 71.4062 44.9219 71.875C44.4219 72.3438 43.8594 72.7344 43.2344 73.0469C42.6094 73.3594 42 73.5156 41.4062 73.5156C40.5 73.5156 39.7031 73.4375 39.0156 73.2812C38.3594 73.1562 37.6562 73 36.9062 72.8125C36.1875 72.625 35.375 72.4688 34.4688 72.3438C33.5938 72.1875 32.4844 72.1094 31.1406 72.1094C28.0156 72.1094 24.8594 72.2812 21.6719 72.625C18.5156 72.9375 15.3594 73.0938 12.2031 73.0938C11.1406 73.0938 10.0781 73 9.01562 72.8125C7.98438 72.5938 6.90625 72.4844 5.78125 72.4844C5.59375 72.4844 5.28125 72.5156 4.84375 72.5781C4.40625 72.6094 3.98438 72.625 3.57812 72.625C2.98438 72.625 2.46875 72.5 2.03125 72.25C1.59375 71.9688 1.375 71.2969 1.375 70.2344ZM65.125 11.5C64.5938 11.5 63.8281 11.375 62.8281 11.125C61.8594 10.8438 60.8906 10.4375 59.9219 9.90625C58.9844 9.375 58.1562 8.70312 57.4375 7.89062C56.75 7.07813 56.4062 6.125 56.4062 5.03125C56.4062 4.5 56.5156 3.95312 56.7344 3.39062C56.9531 2.82812 57.25 2.3125 57.625 1.84375C58.0312 1.375 58.5156 1 59.0781 0.71875C59.6406 0.40625 60.2656 0.25 60.9531 0.25C61.5469 0.25 62.2812 0.484375 63.1562 0.953125C64.0625 1.42188 64.9219 2.03125 65.7344 2.78125C66.5469 3.5 67.25 4.3125 67.8438 5.21875C68.4375 6.09375 68.7344 6.95312 68.7344 7.79688C68.7344 8.01563 68.6562 8.32812 68.5 8.73438C68.375 9.14063 68.1562 9.54687 67.8438 9.95312C67.5625 10.3594 67.1875 10.7187 66.7188 11.0312C66.2812 11.3438 65.75 11.5 65.125 11.5ZM58.6094 69.6719C58.5469 69.4219 58.4688 68.9375 58.375 68.2188C58.3125 67.5 58.2344 66.3125 58.1406 64.6562C58.0781 63 58.0156 60.7656 57.9531 57.9531C57.9219 55.1094 57.9062 51.4531 57.9062 46.9844C57.9062 43.4844 58.1094 39.9062 58.5156 36.25C58.9531 32.5625 59.4844 29.0781 60.1094 25.7969C60.1406 25.5156 60.25 25.1406 60.4375 24.6719C60.6562 24.1719 60.9375 23.6875 61.2812 23.2188C61.6562 22.7188 62.0938 22.2969 62.5938 21.9531C63.0938 21.5781 63.6719 21.3906 64.3281 21.3906C65.0156 21.3906 65.5781 21.5156 66.0156 21.7656C66.4531 21.9844 66.7812 22.3125 67 22.75C67.25 23.1562 67.4219 23.6406 67.5156 24.2031C67.6094 24.7344 67.6562 25.2969 67.6562 25.8906C67.6562 27.5469 67.5938 29.375 67.4688 31.375C67.3438 33.3438 67.2031 35.3594 67.0469 37.4219C66.9219 39.4531 66.7969 41.4531 66.6719 43.4219C66.5781 45.3906 66.5312 47.1719 66.5312 48.7656C66.5312 50.1719 66.625 51.7656 66.8125 53.5469C67.0312 55.3281 67.2656 57.1562 67.5156 59.0312C67.7969 60.9062 68.0312 62.75 68.2188 64.5625C68.4375 66.3438 68.5469 67.9688 68.5469 69.4375C68.5469 70.9688 68.1562 72.1562 67.375 73C66.5938 73.8125 65.7188 74.2188 64.75 74.2188C62.875 74.2188 61.4688 73.875 60.5312 73.1875C59.5938 72.5312 58.9531 71.3594 58.6094 69.6719ZM86.2188 68.7812C86.2188 68.3125 86.2344 67.6719 86.2656 66.8594C86.2969 66.0469 86.3125 64.9844 86.3125 63.6719C86.3125 61.5469 86.25 59.3125 86.125 56.9688C86 54.5938 85.8594 52.1406 85.7031 49.6094C85.5781 47.0469 85.4531 44.4219 85.3281 41.7344C85.2344 39.0156 85.1875 36.2344 85.1875 33.3906C85.1875 32.2969 85.2344 31.0781 85.3281 29.7344C85.4219 28.3594 85.6094 27.0938 85.8906 25.9375C86.1719 24.75 86.5781 23.7656 87.1094 22.9844C87.6406 22.1719 88.3594 21.7656 89.2656 21.7656C90.2344 21.7656 90.9844 22.0781 91.5156 22.7031C92.0781 23.2969 92.4844 24.0781 92.7344 25.0469C93.0156 25.9844 93.1719 27.0625 93.2031 28.2812C93.2656 29.4688 93.2969 30.6719 93.2969 31.8906C94.3906 30.2969 95.7812 28.8594 97.4688 27.5781C99.1562 26.2656 100.953 25.1562 102.859 24.25C104.797 23.3438 106.75 22.6406 108.719 22.1406C110.688 21.6406 112.516 21.3906 114.203 21.3906C117.266 21.3906 119.953 21.8438 122.266 22.75C124.609 23.625 126.625 24.8281 128.312 26.3594C130.031 27.8906 131.453 29.6719 132.578 31.7031C133.734 33.7031 134.656 35.8281 135.344 38.0781C136.031 40.3281 136.516 42.6406 136.797 45.0156C137.109 47.3594 137.266 49.625 137.266 51.8125V59.7812C137.266 61.8125 137.125 63.7812 136.844 65.6875C136.594 67.5625 136.219 69.2344 135.719 70.7031C135.219 72.1406 134.594 73.2969 133.844 74.1719C133.125 75.0781 132.297 75.5312 131.359 75.5312C130.672 75.5312 130.031 75.4844 129.438 75.3906C128.844 75.2969 128.312 75.0625 127.844 74.6875C127.406 74.3438 127.062 73.7969 126.812 73.0469C126.562 72.2969 126.438 71.2656 126.438 69.9531C126.438 68.7344 126.562 67.4688 126.812 66.1562C127.062 64.8125 127.328 63.4688 127.609 62.125C127.922 60.7812 128.203 59.4375 128.453 58.0938C128.703 56.75 128.828 55.4219 128.828 54.1094C128.828 52.6406 128.781 51.1875 128.688 49.75C128.625 48.2812 128.469 46.8438 128.219 45.4375C127.969 44.0312 127.609 42.6719 127.141 41.3594C126.703 40.0156 126.094 38.7344 125.312 37.5156C124.688 36.5156 124.031 35.5469 123.344 34.6094C122.688 33.6406 121.875 32.7812 120.906 32.0312C119.969 31.2812 118.828 30.6875 117.484 30.25C116.141 29.7812 114.484 29.5469 112.516 29.5469C111.172 29.5469 109.641 29.8281 107.922 30.3906C106.203 30.9219 104.469 31.7031 102.719 32.7344C101 33.7344 99.3438 34.9531 97.75 36.3906C96.1875 37.7969 94.875 39.375 93.8125 41.125V53.125C93.8125 53.5312 93.8281 54.0625 93.8594 54.7188C93.9219 55.3438 94 56.0469 94.0938 56.8281C94.1875 57.6094 94.2969 58.4375 94.4219 59.3125C94.5781 60.1875 94.7344 61.0469 94.8906 61.8906C95.1406 63.2031 95.4375 64.4531 95.7812 65.6406C96.125 66.8281 96.2969 67.9375 96.2969 68.9688C96.2969 69.6875 96.2656 70.375 96.2031 71.0312C96.1406 71.6875 95.9688 72.2656 95.6875 72.7656C95.4375 73.2344 95.0312 73.6094 94.4688 73.8906C93.9062 74.1719 93.125 74.3125 92.125 74.3125C91.4688 74.3125 90.7969 74.25 90.1094 74.125C89.4219 74.0312 88.7812 73.7969 88.1875 73.4219C87.625 73.0469 87.1562 72.5 86.7812 71.7812C86.4062 71.0312 86.2188 70.0312 86.2188 68.7812ZM150.203 50.0781C150.203 47.7344 150.406 45.4062 150.812 43.0938C151.25 40.7812 151.891 38.5781 152.734 36.4844C153.609 34.3906 154.703 32.4531 156.016 30.6719C157.328 28.8906 158.859 27.3594 160.609 26.0781C162.391 24.7656 164.391 23.75 166.609 23.0312C168.859 22.2812 171.344 21.9062 174.062 21.9062C177.062 21.9062 179.75 22.2969 182.125 23.0781C184.531 23.8281 186.625 24.8438 188.406 26.125C190.219 27.375 191.734 28.8125 192.953 30.4375C194.172 32.0625 195.109 33.75 195.766 35.5C196.109 36.4375 196.359 37.1719 196.516 37.7031C196.703 38.2031 196.891 38.5156 197.078 38.6406C198.109 39.3281 198.906 40.125 199.469 41.0312C200.062 41.9375 200.359 42.7969 200.359 43.6094L200.312 60.4375C200.188 62.2188 200.047 64.375 199.891 66.9062C199.766 69.4062 199.531 72.4531 199.188 76.0469C199 77.9844 198.797 79.9219 198.578 81.8594C198.359 83.7969 198.031 85.6562 197.594 87.4375C197.188 89.25 196.625 90.9219 195.906 92.4531C195.188 93.9844 194.234 95.3125 193.047 96.4375C191.891 97.5938 190.453 98.5 188.734 99.1562C187.016 99.8125 184.938 100.141 182.5 100.141C181.938 100.141 181.109 100.094 180.016 100C178.953 99.9375 177.781 99.7969 176.5 99.5781C175.219 99.3594 173.906 99.0781 172.562 98.7344C171.25 98.3906 170.047 97.9531 168.953 97.4219C167.859 96.9219 166.969 96.3125 166.281 95.5938C165.594 94.875 165.25 94.0312 165.25 93.0625C165.25 92.4688 165.297 91.9062 165.391 91.375C165.484 90.8438 165.672 90.375 165.953 89.9688C166.234 89.5938 166.641 89.2812 167.172 89.0312C167.703 88.8125 168.406 88.7031 169.281 88.7031C169.938 88.7031 170.578 88.9062 171.203 89.3125C171.859 89.75 172.578 90.125 173.359 90.4375C174.141 90.75 175.031 90.9844 176.031 91.1406C177.062 91.2969 178.047 91.4062 178.984 91.4688C179.922 91.5625 180.75 91.6094 181.469 91.6094C182.188 91.6094 182.672 91.6094 182.922 91.6094C184.359 91.6094 185.531 91.1562 186.438 90.25C187.375 89.3438 188.125 88.2031 188.688 86.8281C189.25 85.4844 189.641 84 189.859 82.375C190.109 80.75 190.281 79.2031 190.375 77.7344C190.406 77.0469 190.469 76.25 190.562 75.3438C190.656 74.4375 190.75 73.4844 190.844 72.4844C190.938 71.4531 191.031 70.4219 191.125 69.3906C191.219 68.3594 191.281 67.3906 191.312 66.4844C189.438 68.7969 187.125 70.6719 184.375 72.1094C181.625 73.5156 178.344 74.2188 174.531 74.2188C170.625 74.2188 167.156 73.7188 164.125 72.7188C161.125 71.7188 158.594 70.2188 156.531 68.2188C154.469 66.2188 152.891 63.7188 151.797 60.7188C150.734 57.6875 150.203 54.1406 150.203 50.0781ZM159.203 50.1719C159.203 53.4219 159.625 56.0938 160.469 58.1875C161.344 60.2812 162.516 61.9375 163.984 63.1562C165.484 64.375 167.234 65.2344 169.234 65.7344C171.234 66.2031 173.375 66.4375 175.656 66.4375C178.25 66.4375 180.5 65.875 182.406 64.75C184.312 63.5938 185.922 62.1562 187.234 60.4375C188.547 58.7188 189.562 56.8438 190.281 54.8125C191 52.7812 191.453 50.875 191.641 49.0938C191.734 48.2188 191.688 47.4531 191.5 46.7969C191.312 46.1094 191.094 45.4688 190.844 44.875C190.531 44.1875 190.25 43.5156 190 42.8594C189.75 42.1719 189.625 41.4688 189.625 40.75C189.625 39.7812 189.266 38.6875 188.547 37.4688C187.859 36.2188 186.891 35.0469 185.641 33.9531C184.422 32.8594 182.969 31.9375 181.281 31.1875C179.594 30.4062 177.781 30.0156 175.844 30.0156C172.625 30.0156 169.938 30.5938 167.781 31.75C165.656 32.875 163.953 34.375 162.672 36.25C161.422 38.125 160.531 40.2812 160 42.7188C159.469 45.125 159.203 47.6094 159.203 50.1719ZM217.469 64.7031C217.312 63.9844 217.234 63.2031 217.234 62.3594C217.234 61.5156 217.234 60.6875 217.234 59.875C217.234 57.7812 217.188 55.7188 217.094 53.6875C217 51.625 216.891 49.5781 216.766 47.5469C216.672 45.5156 216.578 43.4688 216.484 41.4062C216.422 39.3438 216.422 37.25 216.484 35.125L216.859 10.6562C216.859 8.59375 217.172 6.92187 217.797 5.64062C218.422 4.35938 219.547 3.71875 221.172 3.71875C221.766 3.71875 222.297 3.84375 222.766 4.09375C223.266 4.34375 223.688 4.67187 224.031 5.07812C224.375 5.45312 224.641 5.875 224.828 6.34375C225.016 6.8125 225.109 7.26563 225.109 7.70312V42.1094C225.109 45.5156 225.172 48.9375 225.297 52.375C225.453 55.7812 225.844 59.2344 226.469 62.7344C226.562 63.2969 226.703 63.7656 226.891 64.1406C227.109 64.4844 227.344 64.7656 227.594 64.9844C227.875 65.1719 228.172 65.2969 228.484 65.3594C228.797 65.4219 229.094 65.4531 229.375 65.4531C229.844 65.4531 230.234 65.3594 230.547 65.1719C230.859 64.9531 231.094 64.75 231.25 64.5625C231.438 64.3438 231.625 64.1406 231.812 63.9531C232.031 63.7344 232.266 63.5469 232.516 63.3906C232.766 63.2031 233.062 63.0625 233.406 62.9688C233.781 62.875 234.219 62.8281 234.719 62.8281C235.281 62.8281 235.766 62.9531 236.172 63.2031C236.578 63.4219 236.922 63.7188 237.203 64.0938C237.484 64.4688 237.688 64.8906 237.812 65.3594C237.969 65.8281 238.047 66.2969 238.047 66.7656C238.047 67.7344 237.75 68.625 237.156 69.4375C236.594 70.2188 235.875 70.8906 235 71.4531C234.125 72.0156 233.172 72.4531 232.141 72.7656C231.109 73.0781 230.141 73.2344 229.234 73.2344C225.984 73.2969 223.359 72.6094 221.359 71.1719C219.391 69.7031 218.094 67.5469 217.469 64.7031ZM245.172 50.7344C245.172 46.2969 245.812 42.2812 247.094 38.6875C248.375 35.0938 250.266 32.0312 252.766 29.5C255.266 26.9688 258.328 25.0156 261.953 23.6406C265.609 22.2656 269.812 21.5781 274.562 21.5781C276.188 21.5781 277.844 21.75 279.531 22.0938C281.25 22.4375 282.906 22.9375 284.5 23.5938C286.094 24.25 287.594 25.0625 289 26.0312C290.438 27 291.688 28.125 292.75 29.4062C293.812 30.6562 294.641 32.0625 295.234 33.625C295.859 35.1562 296.172 36.8281 296.172 38.6406C296.172 40.0469 295.859 41.0625 295.234 41.6875C294.609 42.3125 293.781 42.75 292.75 43C291.844 43.25 290.781 43.4844 289.562 43.7031C288.375 43.8906 287.031 44.2188 285.531 44.6875L254.172 54.4375C254.578 56.3438 255.234 57.9688 256.141 59.3125C257.078 60.6562 258.156 61.7812 259.375 62.6875C260.625 63.5938 261.969 64.3125 263.406 64.8438C264.875 65.375 266.344 65.7812 267.812 66.0625C269.281 66.3125 270.703 66.4844 272.078 66.5781C273.484 66.6406 274.75 66.6719 275.875 66.6719C277.656 66.6719 279.422 66.4688 281.172 66.0625C282.922 65.6562 284.531 65.2031 286 64.7031C287.469 64.2031 288.75 63.75 289.844 63.3438C290.969 62.9375 291.781 62.7344 292.281 62.7344C293.938 62.7344 295.141 63.1094 295.891 63.8594C296.672 64.6094 297.062 65.7812 297.062 67.375C297.062 68.4062 296.531 69.2969 295.469 70.0469C294.438 70.7969 293.094 71.4219 291.438 71.9219C289.781 72.4219 287.938 72.8125 285.906 73.0938C283.906 73.4062 281.938 73.625 280 73.75C278.094 73.9062 276.344 74 274.75 74.0312C273.156 74.0938 271.953 74.125 271.141 74.125C268.984 74.125 266.828 73.8438 264.672 73.2812C262.547 72.75 260.516 71.9844 258.578 70.9844C256.672 69.9844 254.891 68.7812 253.234 67.375C251.609 65.9375 250.188 64.3594 248.969 62.6406C247.781 60.8906 246.844 59.0156 246.156 57.0156C245.5 55.0156 245.172 52.9219 245.172 50.7344ZM253.938 47.0781C255.406 46.6406 257.094 46.1406 259 45.5781C260.906 45.0156 262.906 44.4219 265 43.7969C267.125 43.1406 269.266 42.4688 271.422 41.7812C273.609 41.0938 275.703 40.4219 277.703 39.7656C279.734 39.0781 281.594 38.4375 283.281 37.8438C285 37.2188 286.438 36.6406 287.594 36.1094C287.25 34.9219 286.672 33.9062 285.859 33.0625C285.047 32.1875 284.016 31.4844 282.766 30.9531C281.547 30.3906 280.125 29.9844 278.5 29.7344C276.875 29.4531 275.094 29.3125 273.156 29.3125C272.281 29.3125 271.234 29.4375 270.016 29.6875C268.828 29.9375 267.562 30.3438 266.219 30.9062C264.906 31.4375 263.562 32.1562 262.188 33.0625C260.844 33.9688 259.609 35.0781 258.484 36.3906C257.359 37.7031 256.391 39.25 255.578 41.0312C254.766 42.7812 254.219 44.7969 253.938 47.0781ZM336.812 73.7031C333.719 73.7031 331.156 73.0938 329.125 71.875C327.094 70.625 325.453 68.9688 324.203 66.9062C322.953 64.8125 322.016 62.4375 321.391 59.7812C320.766 57.0938 320.328 54.3125 320.078 51.4375C319.828 48.5312 319.688 45.6406 319.656 42.7656C319.625 39.8906 319.578 37.2344 319.516 34.7969C318.672 34.7969 317.906 34.7969 317.219 34.7969C316.562 34.7969 315.906 34.8125 315.25 34.8438C314.875 34.875 314.531 34.9062 314.219 34.9375C313.906 34.9375 313.562 34.9531 313.188 34.9844C312.844 34.9844 312.438 35 311.969 35.0312C311.531 35.0312 310.984 35.0312 310.328 35.0312C309.953 35.0312 309.453 34.9375 308.828 34.75C308.203 34.5625 307.578 34.2969 306.953 33.9531C306.328 33.6094 305.781 33.1875 305.312 32.6875C304.875 32.1562 304.656 31.5625 304.656 30.9062C304.656 30.25 304.797 29.6406 305.078 29.0781C305.359 28.5156 305.734 28.0469 306.203 27.6719C306.703 27.2656 307.281 26.9531 307.938 26.7344C308.594 26.5156 309.281 26.4062 310 26.4062L319.844 26.6406C319.938 25.8594 320.031 25.0781 320.125 24.2969C320.219 23.5156 320.297 22.75 320.359 22C320.453 21.0938 320.516 20.25 320.547 19.4688C320.578 18.6875 320.625 17.9375 320.688 17.2188C320.75 16.4688 320.812 15.7344 320.875 15.0156C320.969 14.2656 321.109 13.4844 321.297 12.6719C321.391 12.1406 321.609 11.625 321.953 11.125C322.297 10.5938 322.688 10.125 323.125 9.71875C323.594 9.3125 324.078 8.98437 324.578 8.73438C325.109 8.48438 325.609 8.35938 326.078 8.35938C326.453 8.35938 326.844 8.45312 327.25 8.64062C327.656 8.82812 328.031 9.10938 328.375 9.48438C328.719 9.82812 329 10.25 329.219 10.75C329.469 11.2188 329.594 11.75 329.594 12.3438C329.594 13.5938 329.578 14.6406 329.547 15.4844C329.547 16.3281 329.516 17.0469 329.453 17.6406C329.422 18.2344 329.375 18.75 329.312 19.1875C329.25 19.625 329.188 20.0625 329.125 20.5C329.062 20.8438 329 21.2188 328.938 21.625C328.906 22 328.859 22.4375 328.797 22.9375C328.766 23.4375 328.719 24.0156 328.656 24.6719C328.594 25.2969 328.516 26.0469 328.422 26.9219C330.203 26.8906 331.891 26.8594 333.484 26.8281C335.109 26.7656 336.703 26.7188 338.266 26.6875C339.828 26.625 341.422 26.5781 343.047 26.5469C344.672 26.5156 346.406 26.5 348.25 26.5C348.875 26.5 349.422 26.6719 349.891 27.0156C350.391 27.3281 350.797 27.7188 351.109 28.1875C351.453 28.6562 351.703 29.1562 351.859 29.6875C352.047 30.1875 352.141 30.625 352.141 31C352.141 31.6562 352 32.25 351.719 32.7812C351.438 33.2812 351.094 33.7031 350.688 34.0469C350.281 34.3906 349.828 34.6406 349.328 34.7969C348.828 34.9531 348.375 35.0312 347.969 35.0312L328.797 34.7031C328.672 34.8281 328.609 34.9688 328.609 35.125C328.609 36.7812 328.578 38.6875 328.516 40.8438C328.453 42.9688 328.438 45.1406 328.469 47.3594C328.531 49.5781 328.672 51.7656 328.891 53.9219C329.109 56.0469 329.5 57.9531 330.062 59.6406C330.656 61.2969 331.453 62.6406 332.453 63.6719C333.453 64.7031 334.766 65.2188 336.391 65.2188C336.922 65.2188 337.547 65.125 338.266 64.9375C339.016 64.7188 339.75 64.4688 340.469 64.1875C341.188 63.9062 341.859 63.5938 342.484 63.25C343.109 62.9062 343.594 62.5938 343.938 62.3125C344.281 62 344.734 61.7188 345.297 61.4688C345.859 61.2188 346.328 61.0938 346.703 61.0938C347.891 61.0938 348.641 61.3906 348.953 61.9844C349.297 62.5469 349.469 63.3281 349.469 64.3281C349.469 64.6719 349.391 65.0938 349.234 65.5938C349.078 66.0625 348.875 66.4531 348.625 66.7656C348.031 67.5156 347.25 68.3125 346.281 69.1562C345.344 69.9688 344.328 70.7188 343.234 71.4062C342.141 72.0625 341.031 72.6094 339.906 73.0469C338.781 73.4844 337.75 73.7031 336.812 73.7031Z" fill="white"/>
</svg>
